<?xml version="1.0" standalone="no"?><!DOCTYPE svg PUBLIC "-//W3C//DTD SVG 1.1//EN" "http://www.w3.org/Graphics/SVG/1.1/DTD/svg11.dtd"><svg t="1723616450956" class="icon" viewBox="0 0 1024 1024" version="1.1" xmlns="http://www.w3.org/2000/svg" p-id="7272" xmlns:xlink="http://www.w3.org/1999/xlink" width="128" height="128"><path d="M512 403.2L454.4 533.333333h115.2L512 403.2z m36.266667-125.866667l2.133333 4.266667 170.666667 384c10.666667 21.333333 0 46.933333-21.333334 55.466667-21.333333 8.533333-44.8 0-55.466666-19.2l-2.133334-2.133334-36.266666-83.2c-2.133333 2.133333-4.266667 2.133333-8.533334 2.133334h-170.666666c-4.266667 0-6.4 0-10.666667-2.133334l-36.266667 83.2c-8.533333 21.333333-32 29.866667-53.333333 23.466667l-2.133333-2.133333c-21.333333-8.533333-29.866667-32-23.466667-53.333334l2.133333-2.133333 170.666667-384c12.8-32 57.6-34.133333 74.666667-4.266667zM512 149.333333C311.466667 149.333333 149.333333 311.466667 149.333333 512s162.133333 362.666667 362.666667 362.666667 362.666667-162.133333 362.666667-362.666667S712.533333 149.333333 512 149.333333z m0-85.333333c247.466667 0 448 200.533333 448 448s-200.533333 448-448 448S64 759.466667 64 512 264.533333 64 512 64z" p-id="7273" fill="#0066cc"></path></svg>