<?xml version="1.0" standalone="no"?><!DOCTYPE svg PUBLIC "-//W3C//DTD SVG 1.1//EN" "http://www.w3.org/Graphics/SVG/1.1/DTD/svg11.dtd"><svg t="1723616420511" class="icon" viewBox="0 0 1024 1024" version="1.1" xmlns="http://www.w3.org/2000/svg" p-id="7062" xmlns:xlink="http://www.w3.org/1999/xlink" width="128" height="128"><path d="M610.133333 682.666667 580.266667 597.333333 443.733333 597.333333 413.866667 682.666667 332.8 682.666667 469.333333 298.666667 554.666667 298.666667 691.2 682.666667 610.133333 682.666667M853.333333 370.773333 853.333333 170.666667 653.226667 170.666667 512 29.44 370.773333 170.666667 170.666667 170.666667 170.666667 370.773333 29.44 512 170.666667 653.226667 170.666667 853.333333 370.773333 853.333333 512 994.56 653.226667 853.333333 853.333333 853.333333 853.333333 653.226667 994.56 512 853.333333 370.773333M462.933333 539.733333 561.066667 539.733333 512 384 462.933333 539.733333Z" p-id="7063" fill="#0066cc"></path></svg>