<?xml version="1.0" encoding="UTF-8" standalone="no"?>
<svg
   t="1723617029156"
   class="icon"
   viewBox="0 0 1024 1024"
   version="1.1"
   p-id="15805"
   width="128"
   height="128"
   id="svg2"
   sodipodi:docname="d10.svg"
   inkscape:version="1.3.2 (091e20e, 2023-11-25, custom)"
   xmlns:inkscape="http://www.inkscape.org/namespaces/inkscape"
   xmlns:sodipodi="http://sodipodi.sourceforge.net/DTD/sodipodi-0.dtd"
   xmlns="http://www.w3.org/2000/svg"
   xmlns:svg="http://www.w3.org/2000/svg">
  <defs
     id="defs2" />
  <sodipodi:namedview
     id="namedview2"
     pagecolor="#ffffff"
     bordercolor="#000000"
     borderopacity="0.25"
     inkscape:showpageshadow="2"
     inkscape:pageopacity="0.0"
     inkscape:pagecheckerboard="0"
     inkscape:deskcolor="#d1d1d1"
     inkscape:zoom="1"
     inkscape:cx="63.5"
     inkscape:cy="63.5"
     inkscape:window-width="1920"
     inkscape:window-height="1046"
     inkscape:window-x="-11"
     inkscape:window-y="-11"
     inkscape:window-maximized="1"
     inkscape:current-layer="svg2" />
  <path
     d="M 535.03977,752.0746 H 403.80699 c -23.49582,0 -42.98017,-18.12376 -42.98017,-39.97886 0,-21.85511 19.48435,-39.97886 42.98017,-39.97886 h 131.23278 a 44.756681,41.631323 0 0 0 0,-83.15604 H 403.80699 c -13.75366,0 -26.93424,-6.39662 -34.95721,-16.5246 a 42.750939,39.765643 0 0 1 -5.73068,-36.2475 l 43.55322,-122.0688 c 5.7307,-16.5246 22.3497,-27.18562 40.68791,-27.18562 H 622.7193 c 23.49583,0 42.98017,18.12375 42.98017,39.97886 0,21.85511 -19.48434,39.97885 -42.98017,39.97885 H 478.30594 l -14.89979,42.11108 h 71.63362 a 130.65975,121.53575 0 1 1 0,243.07149 z"
     fill="#0066cc"
     p-id="15807"
     id="path2"
     style="stroke-width:1.29539" />
  <path
     d="m 194.15693,296.96342 a 32.21472,31.532926 45.306401 1 1 49.49334,41.16541 c -48.21334,58.70198 -75.09334,128.95363 -77.65334,203.13887 -6.82666,191.00063 143.36,355.49337 334.93334,365.99144 191.14666,10.91561 352.42666,-135.82102 358.82666,-327.25745 6.4,-191.43643 -143.36,-355.49337 -334.93333,-365.99144 -24.32,-1.37357 -49.92,0.21213 -77.65333,5.16554 -1.70667,0.39015 -3.41334,-0.073 -5.12,-0.10952 -4.26667,2.04206 -9.38667,3.21253 -14.08,3.11213 a 30.187824,29.548927 45.306401 0 1 -20.05334,-7.6823 c -13.65333,-11.38541 -15.78666,-31.48437 -5.12,-44.90953 l 84.48,-103.5795 a 32.257846,31.575139 45.306401 0 1 44.8,-4.161655 c 13.65334,11.3854 15.78667,31.484369 5.12,44.909525 l -35.41333,43.18912 c 8.10667,-0.25325 16.64,-0.49738 24.74667,0.1027 226.56,12.52649 404.48,207.47916 396.37333,433.86574 -8.10667,226.38659 -198.82667,400.22678 -425.38667,387.27362 -226.56,-12.95316 -404.48,-207.47916 -396.37333,-433.86574 4.26667,-87.80206 35.84,-171.17999 93.01333,-240.35696 z"
     fill="#0066cc"
     opacity="0.4"
     p-id="15806"
     id="use2"
     style="fill:#0066cc;fill-opacity:1;stroke:none;stroke-width:40;stroke-dasharray:none;stroke-opacity:1;opacity:1" />
</svg>
