<?xml version="1.0" standalone="no"?><!DOCTYPE svg PUBLIC "-//W3C//DTD SVG 1.1//EN" "http://www.w3.org/Graphics/SVG/1.1/DTD/svg11.dtd"><svg t="1722696756674" class="icon" viewBox="0 0 1024 1024" version="1.1" xmlns="http://www.w3.org/2000/svg" p-id="12803" xmlns:xlink="http://www.w3.org/1999/xlink" width="128" height="128"><path d="M626.645333 87.978667c12.202667 5.12 20.096 17.066667 20.096 30.165333v306.261333h173.482667c11.776 0 22.656 6.186667 28.586667 16.256 5.973333 10.112 6.016 22.570667 0.213333 32.725334l-21.717333 38.101333a1566.634667 1566.634667 0 0 1-311.168 386.901333l-35.114667 31.701334a33.322667 33.322667 0 0 1-35.669333 5.76 32.810667 32.810667 0 0 1-19.712-30.037334v-303.616h-179.2a33.152 33.152 0 0 1-28.586667-16.298666 32.597333 32.597333 0 0 1-0.256-32.682667 1568.085333 1568.085333 0 0 1 294.613333-383.914667l78.506667-74.794666a33.28 33.28 0 0 1 35.925333-6.528zM303.104 536.533333h155.648c18.261333 0 33.066667 14.72 33.066667 32.853334v261.802666a1500.672 1500.672 0 0 0 271.573333-341.162666h-149.76a32.981333 32.981333 0 0 1-33.066667-32.853334V195.328l-22.442666 21.333333a1503.018667 1503.018667 0 0 0-254.976 319.914667z" p-id="12804" fill="#0066cc"></path><path d="M586.282667 89.856a39.68 39.68 0 0 1 42.837333-7.765333 39.210667 39.210667 0 0 1 24.021333 36.053333v299.818667h167.04c12.330667 0 23.808 5.674667 31.232 15.189333l2.944 4.266667a38.954667 38.954667 0 0 1 0.213334 39.168l-21.717334 38.058666a1573.034667 1573.034667 0 0 1-312.405333 388.48l-35.157333 31.744a39.722667 39.722667 0 0 1-42.538667 6.826667 39.210667 39.210667 0 0 1-23.509333-35.84l-0.042667-297.301333h-172.8a39.594667 39.594667 0 0 1-31.146667-15.104l-2.944-4.266667a38.912 38.912 0 0 1-0.298666-39.04 1574.485333 1574.485333 0 0 1 295.808-385.450667l78.464-74.837333z m33.536 2.56a26.88 26.88 0 0 0-24.704 6.698667l-78.506667 74.837333a1561.898667 1561.898667 0 0 0-293.418667 382.421333 26.197333 26.197333 0 0 0 0.170667 26.282667c4.778667 8.106667 13.568 13.141333 23.04 13.141333h179.2l6.4 6.4v303.616c0 10.453333 6.229333 19.968 15.914667 24.192 9.685333 4.266667 20.992 2.432 28.8-4.650666l35.157333-31.701334a1560.234667 1560.234667 0 0 0 309.888-385.365333l21.717333-38.058667a26.197333 26.197333 0 0 0-0.170666-26.325333 26.752 26.752 0 0 0-23.082667-13.098667h-173.482667l-6.4-6.4V118.144a26.453333 26.453333 0 0 0-16.213333-24.32l-4.266667-1.365333z m-32.853334 87.893333v276.906667c0 14.549333 11.946667 26.410667 26.666667 26.410667h160.853333l-5.546666 9.6a1507.072 1507.072 0 0 1-272.725334 342.613333l-10.794666 10.112v-276.608c0-14.549333-11.946667-26.410667-26.666667-26.410667h-166.826667l5.717334-9.642666a1509.418667 1509.418667 0 0 1 256.085333-321.28l33.237333-31.658667z m-12.842666 29.866667l-11.562667 11.093333a1496.96 1496.96 0 0 0-238.762667 293.589334l-9.301333 15.274666h144.213333c20.266667 0 36.992 15.146667 39.253334 34.645334l0.256 4.565333v246.826667l10.282666-9.813334a1494.272 1494.272 0 0 0 234.538667-294.570666l9.088-15.402667-138.496 0.042667a39.424 39.424 0 0 1-39.253333-34.645334l-0.213334-4.565333-0.042666-247.04z" p-id="12805" fill="#0066cc"></path></svg>