<?xml version="1.0" standalone="no"?><!DOCTYPE svg PUBLIC "-//W3C//DTD SVG 1.1//EN" "http://www.w3.org/Graphics/SVG/1.1/DTD/svg11.dtd"><svg t="1722695958364" class="icon" viewBox="0 0 1024 1024" version="1.1" xmlns="http://www.w3.org/2000/svg" p-id="3233" xmlns:xlink="http://www.w3.org/1999/xlink" width="128" height="128"><path d="M791.926634 64.636878c20.979512 0 37.962927 16.983415 37.962927 37.962927v819.2c0 20.979512-16.983415 37.962927-37.962927 37.962927h-3.996097c-20.979512 0-37.962927-16.983415-37.962927-37.962927v-819.2c0-20.979512 16.983415-37.962927 37.962927-37.962927h3.996097zM205.799024 76.924878c16.384-16.384 43.057951-16.384 59.441952 0l382.226731 382.226732c14.186146 14.186146 21.978537 32.967805 21.978537 53.048195s-7.79239 38.862049-21.978537 53.048195L265.240976 947.474732c-16.384 16.384-43.057951 16.384-59.441952 0s-16.384-43.057951 0-59.441952l375.832976-375.832975L205.799024 136.366829c-16.384-16.384-16.384-42.958049 0-59.441951z" p-id="3234" fill="#0066cc"></path></svg>