<?xml version="1.0" encoding="UTF-8" standalone="no"?>
<svg
   t="1723617029156"
   class="icon"
   viewBox="0 0 1024 1024"
   version="1.1"
   p-id="15805"
   width="128"
   height="128"
   id="svg2"
   sodipodi:docname="p10.svg"
   inkscape:version="1.3.2 (091e20e, 2023-11-25, custom)"
   xmlns:inkscape="http://www.inkscape.org/namespaces/inkscape"
   xmlns:sodipodi="http://sodipodi.sourceforge.net/DTD/sodipodi-0.dtd"
   xmlns="http://www.w3.org/2000/svg"
   xmlns:svg="http://www.w3.org/2000/svg">
  <defs
     id="defs2" />
  <sodipodi:namedview
     id="namedview2"
     pagecolor="#ffffff"
     bordercolor="#000000"
     borderopacity="0.25"
     inkscape:showpageshadow="2"
     inkscape:pageopacity="0.0"
     inkscape:pagecheckerboard="0"
     inkscape:deskcolor="#d1d1d1"
     inkscape:zoom="6.3671875"
     inkscape:cx="64"
     inkscape:cy="64"
     inkscape:window-width="1920"
     inkscape:window-height="1046"
     inkscape:window-x="-11"
     inkscape:window-y="-11"
     inkscape:window-maximized="1"
     inkscape:current-layer="svg2" />
  <path
     d="M831.146667 302.506667a31.872 31.872 0 1 0-49.493334 40.106666c48.213333 59.733333 75.093333 130.56 77.653334 204.8 6.826667 191.146667-143.36 352.426667-334.933334 358.826667-191.146667 6.826667-352.426667-143.36-358.826666-334.933333-6.4-191.573333 143.36-352.426667 334.933333-358.826667 24.32-0.853333 49.92 1.28 77.653333 6.826667 1.706667 0.426667 3.413333 0 5.12 0 4.266667 2.133333 9.386667 3.413333 14.08 3.413333a29.866667 29.866667 0 0 0 20.053334-7.253333c13.653333-11.093333 15.786667-31.146667 5.12-44.8l-84.48-105.386667a31.914667 31.914667 0 0 0-44.8-5.12c-13.653333 11.093333-15.786667 31.146667-5.12 44.8l35.413333 43.946667c-8.106667-0.426667-16.64-0.853333-24.746667-0.426667-226.56 7.68-404.48 198.826667-396.373333 425.386667 8.106667 226.56 198.826667 404.48 425.386667 396.373333 226.56-8.106667 404.48-198.826667 396.373333-425.386667-4.266667-87.893333-35.84-171.946667-93.013333-242.346666z"
     fill="#0066cc"
     opacity=".4"
     p-id="15806"
     id="path1"
     style="fill:#0066cc;fill-opacity:1;opacity:1;stroke:none;stroke-opacity:1;stroke-width:40;stroke-dasharray:none" />
  <path
     d="M 535.03977,752.0746 H 403.80699 c -23.49582,0 -42.98017,-18.12376 -42.98017,-39.97886 0,-21.85511 19.48435,-39.97886 42.98017,-39.97886 h 131.23278 a 44.756681,41.631323 0 0 0 0,-83.15604 H 403.80699 c -13.75366,0 -26.93424,-6.39662 -34.95721,-16.5246 a 42.750939,39.765643 0 0 1 -5.73068,-36.2475 l 43.55322,-122.0688 c 5.7307,-16.5246 22.3497,-27.18562 40.68791,-27.18562 H 622.7193 c 23.49583,0 42.98017,18.12375 42.98017,39.97886 0,21.85511 -19.48434,39.97885 -42.98017,39.97885 H 478.30594 l -14.89979,42.11108 h 71.63362 a 130.65975,121.53575 0 1 1 0,243.07149 z"
     fill="#0066cc"
     p-id="15807"
     id="path2"
     style="stroke-width:1.29539" />
</svg>
