<?xml version="1.0" standalone="no"?><!DOCTYPE svg PUBLIC "-//W3C//DTD SVG 1.1//EN" "http://www.w3.org/Graphics/SVG/1.1/DTD/svg11.dtd"><svg t="1722695938325" class="icon" viewBox="0 0 1024 1024" version="1.1" xmlns="http://www.w3.org/2000/svg" p-id="2938" xmlns:xlink="http://www.w3.org/1999/xlink" width="128" height="128"><path d="M236.469073 64.636878c20.979512 0 37.962927 16.983415 37.962927 37.962927v819.2c0 20.979512-16.983415 37.962927-37.962927 37.962927h-3.996097c-20.979512 0-37.962927-16.983415-37.962927-37.962927v-819.2c0-20.979512 16.983415-37.962927 37.962927-37.962927h3.996097zM818.001171 76.924878c16.384 16.483902 16.384 43.057951 0 59.441951L442.168195 512.199805l375.832976 375.832975c16.384 16.384 16.384 43.057951 0 59.441952s-43.057951 16.384-59.441951 0L376.332488 565.248c-14.186146-14.186146-21.978537-32.967805-21.978537-53.048195s7.79239-38.862049 21.978537-53.048195L758.55922 76.924878c16.384-16.384 43.057951-16.384 59.441951 0z" p-id="2939" fill="#0066cc"></path></svg>