<?xml version="1.0" standalone="no"?><!DOCTYPE svg PUBLIC "-//W3C//DTD SVG 1.1//EN" "http://www.w3.org/Graphics/SVG/1.1/DTD/svg11.dtd"><svg t="1722696068653" class="icon" viewBox="0 0 1024 1024" version="1.1" xmlns="http://www.w3.org/2000/svg" p-id="4008" xmlns:xlink="http://www.w3.org/1999/xlink" width="128" height="128"><path d="M101.4 205.1l58.3 47C239.3 147.3 362.9 80 501.8 80 741.6 80 935.7 264 936 511.5 936.3 759.1 741.8 944 501.8 944c-187.5 0-347.2-122.7-408-294.5-1.6-4.5 0.7-9.5 5.1-11l58.6-20.8c4.2-1.5 8.9 0.7 10.4 5.1 1.9 5.3 3.9 10.7 6.1 15.9 17.9 43.7 43.5 83 76.2 116.7s70.7 60.2 113 78.7c43.7 19.1 90.4 28.8 138.4 28.8 48.1 0 94.6-9.7 138.4-28.8 42.3-18.5 80.3-44.9 113-78.7 32.7-33.7 58.3-73 76.2-116.7 18.5-45.2 27.9-77.2 27.9-126.8s-9.4-81.6-27.9-126.8c-17.9-43.7-43.5-83-76.2-116.7s-70.7-60.2-113-78.7c-43.7-19.1-90.4-28.8-138.4-28.8-48.1 0-94.6 9.7-138.4 28.8-42.3 18.5-80.3 44.9-113 78.7-10.2 10.6-19.9 21.8-28.7 33.5l62.2 50.1c5.5 4.4 3.6 13.3-3.1 15L99 412.9c-5.2 1.3-10.2-2.8-10.2-8.2l-0.8-193c0.1-7 8.1-11 13.4-6.6z" p-id="4009" fill="#0066cc"></path></svg>